<?xml version="1.0" encoding="UTF-8" standalone="no"?>
<!-- Created with Inkscape (http://www.inkscape.org/) -->

<svg
   xmlns:dc="http://purl.org/dc/elements/1.1/"
   xmlns:cc="http://creativecommons.org/ns#"
   xmlns:rdf="http://www.w3.org/1999/02/22-rdf-syntax-ns#"
   xmlns:svg="http://www.w3.org/2000/svg"
   xmlns="http://www.w3.org/2000/svg"
   xmlns:sodipodi="http://sodipodi.sourceforge.net/DTD/sodipodi-0.dtd"
   xmlns:inkscape="http://www.inkscape.org/namespaces/inkscape"
   width="200mm"
   height="200mm"
   viewBox="0 0 200 200"
   version="1.1"
   id="svg831"
   inkscape:version="0.92.3 (2405546, 2018-03-11)"
   sodipodi:docname="drawing13logo.svg">
  <defs
     id="defs825" />
  <sodipodi:namedview
     id="base"
     pagecolor="#ffffff"
     bordercolor="#666666"
     borderopacity="1.0"
     inkscape:pageopacity="0.0"
     inkscape:pageshadow="2"
     inkscape:zoom="0.35"
     inkscape:cx="-82.857143"
     inkscape:cy="560"
     inkscape:document-units="mm"
     inkscape:current-layer="layer1"
     showgrid="false"
     units="px" />
  <metadata
     id="metadata828">
    <rdf:RDF>
      <cc:Work
         rdf:about="">
        <dc:format>image/svg+xml</dc:format>
        <dc:type
           rdf:resource="http://purl.org/dc/dcmitype/StillImage" />
        <dc:title></dc:title>
      </cc:Work>
    </rdf:RDF>
  </metadata>
  <g
     inkscape:label="Layer 1"
     inkscape:groupmode="layer"
     id="layer1"
     transform="translate(0,-97)">
    <path
       style="fill:#ffffff;stroke-width:1.24477947;stroke:#ffffff"
       d="M 83.718145,283.76462 C 76.178711,276.82307 59.635569,260.9242 46.95561,248.43389 34.275653,235.94351 18.713883,220.8638 12.373905,214.92337 3.8047846,206.89431 0.8466688,203.32611 0.8466688,201.01892 c 0,-2.15965 2.7687984,-5.99133 9.1027824,-12.59706 5.0065288,-5.22134 12.1552838,-12.85047 15.8861248,-16.9536 14.257923,-15.68069 39.139653,-40.4096 40.659309,-40.4096 0.873652,0 2.555613,1.47269 3.737696,3.27276 2.0506,3.12252 2.037623,3.46244 -0.282796,7.40667 -1.337637,2.27371 -7.702408,9.61338 -14.143941,16.31041 -6.441529,6.69698 -15.133693,15.81326 -19.315909,20.25832 -4.182214,4.44505 -10.58154,11.21062 -14.220728,15.03453 l -6.616702,6.95265 19.515506,20.06398 c 10.733525,11.03517 22.4032,22.1173 25.932611,24.62696 3.529403,2.50965 5.457117,3.48041 4.283802,2.15715 -3.305968,-3.72836 -6.290686,-11.48138 -7.817162,-20.30565 -1.337507,-7.73187 -1.55233,-8.07663 -5.539545,-8.89025 -4.754353,-0.97019 -6.272155,-2.79633 -6.299194,-7.57875 -0.026,-4.61097 3.28599,-6.21208 9.378219,-4.53372 3.483291,0.9596 6.71703,0.90095 11.999664,-0.21735 5.775392,-1.22287 7.611179,-1.21664 9.117652,0.0294 3.341541,2.76699 2.293183,7.3186 -2.309769,10.02829 -4.122535,2.42687 -4.177113,2.57113 -3.116077,8.23773 3.663208,19.56394 16.144399,29.46921 33.206078,26.353 20.0963,-3.67046 29.38491,-15.68051 26.42492,-34.1671 -2.2582,-14.10391 -9.22665,-21.07434 -24.09553,-24.10226 -8.168807,-1.66353 -14.0359,-0.94157 -20.95017,2.57786 -5.593378,2.84707 -8.928165,3.02276 -10.962125,0.57753 -3.357014,-4.03583 -1.731622,-5.65363 25.492075,-25.37353 l 7.48223,-5.41993 -15.109244,0.82304 c -19.898413,1.08384 -22.189352,1.7295 -22.596507,6.36875 -0.728288,8.29824 -2.795787,12.92603 -6.150058,13.766 -6.372116,1.59568 -7.282906,-0.36029 -6.80425,-14.61374 0.250908,-7.47121 1.038526,-13.5349 1.869283,-14.39097 0.912651,-0.94051 8.245635,-1.7538 20.1285,-2.23244 20.714787,-0.83439 45.982276,-3.67724 54.199496,-6.09801 l 5.34209,-1.57381 -16.21006,-16.29933 -16.21001,-16.29935 -0.77652,6.44903 c -0.42733,3.547 -0.78136,11.33194 -0.78734,17.29988 -0.0102,10.13863 -0.21147,10.98193 -3.06529,12.84771 -3.16561,2.06949 -7.912563,1.49621 -9.725618,-1.17453 -0.881203,-1.29811 -0.339318,-13.30052 1.044982,-23.1457 0.336569,-2.39348 0.17049,-3.79135 -0.369,-3.10632 -0.539481,0.68502 -3.103331,3.06296 -5.697442,5.28434 -5.799669,4.96633 -11.161852,5.3905 -13.975789,1.10561 -1.827848,-2.78334 -1.463387,-7.01374 0.604259,-7.01374 2.321294,0 18.556471,-16.52424 21.294296,-21.67346 2.16627,-4.074253 3.785188,-5.680746 5.724622,-5.680746 5.03008,0 6.64651,1.351161 6.64651,5.555776 0,3.67836 0.29241,3.99063 3.21285,3.43356 3.90959,-0.74567 7.11008,2.20685 32.03826,29.55523 9.66167,10.59976 22.36607,24.32145 28.23188,30.49268 24.27303,25.53673 29.98107,32.32614 29.98107,35.66073 0,2.38727 -85.80497,88.13037 -93.1299,93.06269 -2.9941,2.01617 -6.39712,3.6564 -7.562203,3.64495 -1.165086,-0.0102 -8.286975,-5.70024 -15.826412,-12.64183 z m 69.807925,-41.41861 42.86871,-42.6711 -3.64843,-5.02513 c -2.00666,-2.76386 -10.31019,-11.90795 -18.45226,-20.3202 -8.14212,-8.41229 -20.59547,-21.7295 -27.67415,-29.59383 -20.146,-22.38195 -34.55055,-37.30118 -36.01438,-37.30118 -3.84597,0 0.34343,5.5918 16.5893,22.14294 17.31505,17.64027 42.41993,45.00692 54.66053,59.58508 3.35966,4.00117 5.91939,8.30705 5.91939,9.95716 0,2.07649 -4.89721,7.80114 -17.13507,20.03021 -9.42427,9.41752 -19.66107,20.16657 -22.74837,23.8868 -3.08731,3.72018 -10.67012,11.51989 -16.85062,17.33266 -25.01702,23.52838 -29.30405,26.99446 -31.621081,25.56571 -5.722578,-3.52879 -58.774702,-53.80432 -77.904285,-73.82703 -8.772932,-9.18254 -9.749074,-10.66916 -8.730506,-13.2965 1.049838,-2.70796 10.809941,-13.42627 40.871794,-44.88444 12.527305,-13.10916 14.961649,-16.21045 13.454111,-17.14005 -1.367573,-0.84328 -61.0337317,60.1774 -62.2197345,63.63225 -0.1745143,0.50836 14.3770355,15.18428 32.3367825,32.61309 17.959747,17.42881 32.175695,30.9029 31.590993,29.94244 -0.723008,-1.18767 -0.60284,-1.4625 0.375624,-0.85917 0.791299,0.48805 1.438735,1.59891 1.438735,2.46873 0,1.67074 7.812009,9.44969 21.081037,20.99192 l 7.996048,6.95545 5.473562,-3.75735 c 3.01043,-2.06659 24.7644,-22.95936 48.34227,-46.42846 z m -36.76082,25.36034 c 8.21213,-7.59019 14.9311,-13.92195 14.9311,-14.07053 0,-0.14831 -3.94139,1.60298 -8.75869,3.89231 -18.86944,8.9674 -38.749697,8.50828 -49.637122,-1.14625 -2.300992,-2.04046 -2.694312,-2.17062 -1.383466,-0.4577 2.49577,3.26106 27.763392,25.58268 28.959088,25.58268 0.52689,0 7.67696,-6.2102 15.88909,-13.80041 z m 3.85405,-13.72145 c 14.68005,-6.9947 19.80036,-15.28888 19.80036,-32.07344 0,-13.55477 -3.11208,-21.62269 -11.28163,-29.24712 -6.5023,-6.06839 -12.53611,-9.26924 -19.85962,-10.53523 -6.8922,-1.19148 -6.22937,-4.20407 2.09262,-9.51069 8.95523,-5.71039 25.31006,-18.93867 25.31006,-20.47154 0,-0.67818 -1.18618,-0.68278 -2.95596,-0.0102 -5.36415,2.03486 -30.98626,4.90706 -51.253172,5.74544 -10.966452,0.45379 -20.379873,1.08424 -20.918712,1.40126 -0.538838,0.31719 -0.661626,2.70419 -0.272885,5.30483 0.388771,2.60062 0.156761,7.17114 -0.515617,10.15665 -0.672348,2.98552 -0.778145,5.87156 -0.235108,6.41346 1.698896,1.69525 3.944836,-2.35845 5.001363,-9.02689 0.558287,-3.52374 1.549644,-6.94013 2.203019,-7.59201 1.390387,-1.38725 16.887491,-3.21761 34.988412,-4.13242 17.95756,-0.90755 17.50158,0.41071 -5.919389,17.11534 -10.281002,7.33271 -18.69277,13.84064 -18.69277,14.46199 0,0.62138 2.944119,-0.23791 6.542486,-1.90932 12.832303,-5.96079 32.711503,-2.58753 41.418423,7.02824 6.82239,7.53449 8.57564,12.53741 8.664,24.72281 0.0673,9.27805 -0.32675,11.25193 -3.22861,16.16384 -6.06359,10.26459 -18.17928,16.45669 -32.59649,16.65949 -16.607962,0.23349 -25.20678,-6.88452 -30.918239,-25.59428 -3.117151,-10.21125 -2.751754,-13.31145 1.868978,-15.85738 1.974127,-1.0877 3.376089,-2.52873 3.115469,-3.20237 -0.26062,-0.67358 -1.034645,-0.95123 -1.720047,-0.61699 -0.685404,0.33434 -5.872661,0.59408 -11.527236,0.57739 -7.4819,-0.0245 -10.281043,0.39847 -10.281043,1.54453 0,0.86615 1.542152,1.89859 3.42701,2.29426 6.242729,1.31053 7.088626,2.43213 8.592346,11.39282 2.381912,14.19393 9.145335,24.95563 19.451518,30.95055 4.822745,2.8053 6.395936,3.0466 17.753487,2.72288 11.381317,-0.32455 13.284357,-0.74706 21.946927,-4.87466 z m 22.87673,-12.29974 c 5.29164,-6.17326 16.61981,-18.16152 25.17382,-26.64065 17.97002,-17.81273 17.63121,-15.75318 4.81618,-29.27746 -4.21198,-4.44505 -12.61015,-13.67709 -18.6626,-20.51564 -15.36995,-17.36621 -14.39631,-16.40396 -13.62647,-13.46691 0.46266,1.76568 -0.58929,3.52818 -3.64668,6.10922 -8.35721,7.05511 -18.99376,15.16625 -23.30056,17.76849 -2.39891,1.4494 -3.46985,2.63741 -2.37983,2.63995 4.46326,0.0102 17.47867,7.88161 22.80322,13.79043 7.35065,8.15721 9.95282,16.05195 10.00503,30.35396 0.0441,12.13386 -1.96314,18.21218 -8.72606,26.42168 -1.83092,2.2225 -3.04727,4.04096 -2.70305,4.04096 0.34441,0 4.95536,-5.05084 10.247,-11.22403 z M 100.54166,130.51308 c 0,-8.33887 0.60229,-18.4122 1.33842,-22.38517 1.83455,-9.901656 0.0343,-11.128286 -4.951634,-3.37497 -3.856427,5.99614 -12.553428,14.88822 -18.767389,19.18831 -2.321794,1.60676 -2.714919,2.46987 -1.621722,3.56057 1.736861,1.73294 4.854029,-0.09 11.878983,-6.94758 5.332217,-5.20503 9.187043,-5.49182 8.698086,-0.64713 -1.252172,12.40616 -1.764681,24.98836 -1.089383,26.74427 0.654247,1.70107 1.154,1.80607 2.660123,0.55892 1.456366,-1.20597 1.854516,-4.79071 1.854516,-16.69722 z M 83.212984,234.50501 c -1.928338,-0.64131 -1.697901,-7.12579 0.312379,-8.79039 0.922078,-0.76355 3.512347,-1.75458 5.756153,-2.20233 l 4.079644,-0.81408 -0.870168,-13.39562 c -0.819933,-12.6222 -0.725301,-13.47293 1.639047,-14.73545 3.061088,-1.63454 8.500451,-1.75388 9.458291,-0.20754 0.38563,0.62276 0.7433,2.72097 0.79447,4.66264 0.0511,1.94166 0.38809,7.86659 0.74806,13.16649 l 0.65499,9.63613 h 4.60579 c 5.47763,0 7.59664,1.77661 7.59664,6.36911 0,2.73277 -0.78039,3.62674 -4.05011,4.63934 -4.00188,1.23941 -28.085163,2.54976 -30.725186,1.6717 z m 20.703776,-5.21991 c 7.87493,0 10.41112,-0.39307 10.02842,-1.5542 -0.28161,-0.85486 -2.87863,-1.72758 -5.77087,-1.93942 -6.62168,-0.48513 -7.63265,-2.74067 -7.63265,-17.02956 0,-5.72795 -0.44745,-10.69023 -0.994116,-11.0274 -2.894289,-1.78473 -3.759409,1.78189 -3.568508,14.71203 l 0.201151,13.61371 -4.571187,1.30158 c -6.053957,1.72379 -7.875406,3.75803 -2.438595,2.72353 2.313235,-0.44008 8.949169,-0.80027 14.746545,-0.80027 z"
       id="path828"
       inkscape:connector-curvature="0"
       sodipodi:nodetypes="cccsssscccsccsscsccccccscccssccccscccccccccccccscscsscccscccccccsssccsccccccsccsccssccccscccscccsccssccccccscscsccccccscccscscccccscccsccsccscsccccccccsccccscccccsscccccsccccccc" />
  </g>
</svg>
